<?xml version="1.0" standalone="no"?>
<svg viewBox="0 0 1024 1024" fill="none" xmlns="http://www.w3.org/2000/svg"><rect width="1024" height="1024" rx="224" fill="url(#bg-grad-split)"/><rect x="152" y="144" width="344" height="736" rx="40" fill="#FFFFFF"/><rect x="528" y="144" width="344" height="736" rx="40" fill="#FFFFFF"/><rect x="510" y="200" width="4" height="624" rx="2" fill="#818CF8" fill-opacity="0.4"/><g transform="translate(200, 240)"><rect width="160" height="32" rx="16" fill="#A5B4FC"/><rect y="64" width="248" height="16" rx="8" fill="#CBD5E1"/><rect y="104" width="200" height="16" rx="8" fill="#CBD5E1"/><rect x="-8" y="160" width="264" height="64" rx="16" fill="#FEF3C7"/><rect x="8" y="180" width="232" height="24" rx="12" fill="#F59E0B"/><rect y="264" width="220" height="16" rx="8" fill="#CBD5E1"/><rect y="304" width="180" height="16" rx="8" fill="#CBD5E1"/></g><g transform="translate(576, 240)"><rect width="160" height="32" rx="16" fill="#A5B4FC"/><rect y="64" width="248" height="16" rx="8" fill="#CBD5E1"/><rect y="104" width="200" height="16" rx="8" fill="#CBD5E1"/><rect x="-16" y="152" width="264" height="128" rx="24" fill="#FFEDD5"/><rect x="16" y="184" width="200" height="20" rx="10" fill="#F59E0B"/><rect x="16" y="224" width="160" height="20" rx="10" fill="#F59E0B"/><rect y="320" width="220" height="16" rx="8" fill="#CBD5E1"/></g><path d="M440 432 L560 432" stroke="#F59E0B" stroke-width="8" stroke-dasharray="16 16" stroke-linecap="round"/><defs><linearGradient id="bg-grad-split" x1="0%" y1="0%" x2="100%" y2="100%"><stop offset="0%" stop-color="#6366F1"/><stop offset="100%" stop-color="#4338CA"/></linearGradient></defs></svg>